<svg width="36" height="36" fill="none" xmlns="http://www.w3.org/2000/svg"><circle cx="18" cy="18" r="17" stroke="#1B0B02" stroke-width="2"/><path d="M16.655 21.442c.11 0 .207.043.293.128l.794.863c-.44.544-.982.962-1.627 1.252-.64.29-1.41.435-2.31.435-.805 0-1.53-.137-2.175-.413a4.794 4.794 0 01-1.643-1.147 5.07 5.07 0 01-1.05-1.755 6.65 6.65 0 01-.36-2.227c0-.816.13-1.56.39-2.235.26-.68.625-1.265 1.095-1.755.476-.49 1.04-.87 1.696-1.14.655-.276 1.38-.413 2.175-.413.79 0 1.49.13 2.1.39.614.26 1.137.6 1.567 1.02l-.675.938a.59.59 0 01-.158.157.418.418 0 01-.255.068.519.519 0 01-.232-.06 6.057 6.057 0 01-.263-.158 6.628 6.628 0 00-.33-.21 2.518 2.518 0 00-.434-.203 3.092 3.092 0 00-.578-.157 3.693 3.693 0 00-.75-.068c-.485 0-.93.088-1.335.263-.4.17-.745.42-1.035.75-.29.325-.515.725-.675 1.2-.16.47-.24 1.008-.24 1.613 0 .61.085 1.152.255 1.627.175.475.41.875.705 1.2a3.04 3.04 0 001.043.75c.4.17.83.255 1.29.255.274 0 .522-.015.742-.045.225-.03.43-.077.615-.142.19-.066.368-.148.533-.248.17-.105.337-.233.502-.383a.618.618 0 01.158-.104.355.355 0 01.172-.046zm9.683 0c.11 0 .207.043.292.128l.795.863c-.44.544-.982.962-1.627 1.252-.64.29-1.41.435-2.31.435-.805 0-1.53-.137-2.175-.413a4.794 4.794 0 01-1.643-1.147 5.07 5.07 0 01-1.05-1.755 6.65 6.65 0 01-.36-2.227c0-.816.13-1.56.39-2.235.26-.68.625-1.265 1.095-1.755.475-.49 1.04-.87 1.695-1.14.655-.276 1.38-.413 2.175-.413.79 0 1.49.13 2.1.39.615.26 1.138.6 1.568 1.02l-.675.938a.59.59 0 01-.158.157.418.418 0 01-.255.068.519.519 0 01-.232-.06 6.057 6.057 0 01-.263-.158 6.628 6.628 0 00-.33-.21 2.518 2.518 0 00-.435-.203 3.092 3.092 0 00-.577-.157 3.693 3.693 0 00-.75-.068c-.485 0-.93.088-1.335.263-.4.17-.745.42-1.035.75-.29.325-.515.725-.675 1.2-.16.47-.24 1.008-.24 1.613 0 .61.085 1.152.255 1.627.175.475.41.875.705 1.2.295.325.642.575 1.042.75.4.17.83.255 1.29.255.275 0 .523-.015.743-.045.225-.03.43-.077.615-.142.19-.066.367-.148.532-.248.17-.105.338-.233.503-.383a.618.618 0 01.157-.104.355.355 0 01.173-.046z" fill="#1B0B02"/></svg>