<svg width="698" height="698" fill="none" xmlns="http://www.w3.org/2000/svg"><circle cx="349" cy="349" r="349" fill="#A9A286"/><circle cx="349" cy="369" r="317" fill="#B1AB90"/><circle cx="349" cy="389" r="285" fill="#C1BBA0"/><circle cx="349" cy="409" r="253" fill="#D0CAB0"/><circle cx="349" cy="429" r="221" fill="#DED8C0"/><circle cx="349" cy="449" r="189" fill="#EBE5CE"/><circle cx="349" cy="469" r="157" fill="#F5F0DC"/><circle cx="349" cy="489" r="125" fill="#FDF7E4"/><path d="M330.379 485.353a.86.86 0 01-.234.279.51.51 0 01-.297.081.818.818 0 01-.414-.135 7.907 7.907 0 00-.522-.315 4.057 4.057 0 00-.72-.306 2.88 2.88 0 00-.963-.144c-.336 0-.63.042-.882.126a1.845 1.845 0 00-.639.333 1.36 1.36 0 00-.378.522 1.666 1.666 0 00-.126.657c0 .306.084.561.252.765.174.204.402.378.684.522.282.144.603.273.963.387.36.114.729.237 1.107.369.378.126.747.276 1.107.45.36.168.681.384.963.648.282.258.507.576.675.954.174.378.261.837.261 1.377 0 .588-.102 1.14-.306 1.656-.198.51-.492.957-.882 1.341a4.196 4.196 0 01-1.413.9c-.558.216-1.197.324-1.917.324-.414 0-.822-.042-1.224-.126a6.311 6.311 0 01-1.161-.342 6.269 6.269 0 01-1.035-.54 5.012 5.012 0 01-.864-.702l.711-1.161a.71.71 0 01.234-.207.568.568 0 01.306-.09c.15 0 .312.063.486.189.174.12.381.255.621.405.24.15.519.288.837.414.324.12.711.18 1.161.18.69 0 1.224-.162 1.602-.486.378-.33.567-.801.567-1.413 0-.342-.087-.621-.261-.837a1.976 1.976 0 00-.675-.54 4.88 4.88 0 00-.963-.378c-.36-.102-.726-.213-1.098-.333a9.468 9.468 0 01-1.098-.432 3.557 3.557 0 01-.963-.657 3.054 3.054 0 01-.684-1.008c-.168-.408-.252-.909-.252-1.503 0-.474.093-.936.279-1.386.192-.45.468-.849.828-1.197.36-.348.804-.627 1.332-.837.528-.21 1.134-.315 1.818-.315.768 0 1.476.12 2.124.36.648.24 1.2.576 1.656 1.008l-.603 1.143zm12.039-.378h-3.924V496h-2.421v-11.025h-3.924v-1.989h10.269v1.989zm7.313 6.111l-1.584-4.329a9.474 9.474 0 01-.243-.684 22.281 22.281 0 01-.252-.855c-.078.306-.159.594-.243.864-.084.264-.165.495-.243.693l-1.575 4.311h4.14zm4.275 4.914h-1.872a.815.815 0 01-.513-.153 1.016 1.016 0 01-.297-.396l-.972-2.655h-5.391l-.972 2.655a.863.863 0 01-.279.378.779.779 0 01-.513.171h-1.89l5.121-13.014h2.466L354.006 496zm5.28-6.822c.456 0 .852-.057 1.188-.171.342-.114.621-.27.837-.468.222-.204.387-.444.495-.72.108-.276.162-.579.162-.909 0-.66-.219-1.167-.657-1.521-.432-.354-1.095-.531-1.989-.531h-1.548v4.32h1.512zm6.228 6.822h-2.187c-.414 0-.714-.162-.9-.486l-2.736-4.167a.946.946 0 00-.342-.333c-.12-.066-.3-.099-.54-.099h-1.035V496h-2.421v-13.014h3.969c.882 0 1.638.093 2.268.279.636.18 1.155.435 1.557.765.408.33.708.726.9 1.188.192.456.288.96.288 1.512 0 .438-.066.852-.198 1.242a3.46 3.46 0 01-.558 1.062c-.24.318-.54.597-.9.837-.354.24-.759.429-1.215.567.156.09.3.198.432.324.132.12.252.264.36.432l3.258 4.806zm10.162-11.025h-3.924V496h-2.421v-11.025h-3.924v-1.989h10.269v1.989zm-38.29-143.044c.132 0 .249.051.351.153l.954 1.035a5.23 5.23 0 01-1.953 1.503c-.768.348-1.692.522-2.772.522-.966 0-1.836-.165-2.61-.495a5.753 5.753 0 01-1.971-1.377 6.083 6.083 0 01-1.26-2.106c-.288-.816-.432-1.707-.432-2.673 0-.978.156-1.872.468-2.682a6.201 6.201 0 011.314-2.106 5.96 5.96 0 012.034-1.368c.786-.33 1.656-.495 2.61-.495.948 0 1.788.156 2.52.468.738.312 1.365.72 1.881 1.224l-.81 1.125a.708.708 0 01-.189.189.502.502 0 01-.306.081.622.622 0 01-.279-.072 7.268 7.268 0 01-.315-.189 7.954 7.954 0 00-.396-.252 3.022 3.022 0 00-.522-.243 3.71 3.71 0 00-.693-.189 4.432 4.432 0 00-.9-.081c-.582 0-1.116.105-1.602.315a3.41 3.41 0 00-1.242.9c-.348.39-.618.87-.81 1.44-.192.564-.288 1.209-.288 1.935 0 .732.102 1.383.306 1.953.21.57.492 1.05.846 1.44.354.39.771.69 1.251.9.48.204.996.306 1.548.306.33 0 .627-.018.891-.054.27-.036.516-.093.738-.171.228-.078.441-.177.639-.297.204-.126.405-.279.603-.459a.742.742 0 01.189-.126.426.426 0 01.207-.054zm9.839-1.845l-1.584-4.329a9.474 9.474 0 01-.243-.684 22.281 22.281 0 01-.252-.855c-.078.306-.159.594-.243.864-.084.264-.165.495-.243.693l-1.575 4.311h4.14zM351.5 345h-1.872a.815.815 0 01-.513-.153 1.016 1.016 0 01-.297-.396l-.972-2.655h-5.391l-.972 2.655a.863.863 0 01-.279.378.779.779 0 01-.513.171h-1.89l5.121-13.014h2.466L351.5 345zm8.97-1.998V345h-7.623v-13.014h2.421v11.016h5.202zm9.352 0V345h-7.623v-13.014h2.421v11.016h5.202zm-46.436-53.071c.132 0 .249.051.351.153l.954 1.035a5.23 5.23 0 01-1.953 1.503c-.768.348-1.692.522-2.772.522-.966 0-1.836-.165-2.61-.495a5.753 5.753 0 01-1.971-1.377 6.083 6.083 0 01-1.26-2.106c-.288-.816-.432-1.707-.432-2.673 0-.978.156-1.872.468-2.682a6.201 6.201 0 011.314-2.106 5.96 5.96 0 012.034-1.368c.786-.33 1.656-.495 2.61-.495.948 0 1.788.156 2.52.468.738.312 1.365.72 1.881 1.224l-.81 1.125a.708.708 0 01-.189.189.502.502 0 01-.306.081.622.622 0 01-.279-.072 7.268 7.268 0 01-.315-.189 7.954 7.954 0 00-.396-.252 3.022 3.022 0 00-.522-.243 3.71 3.71 0 00-.693-.189 4.432 4.432 0 00-.9-.081c-.582 0-1.116.105-1.602.315a3.41 3.41 0 00-1.242.9c-.348.39-.618.87-.81 1.44-.192.564-.288 1.209-.288 1.935 0 .732.102 1.383.306 1.953.21.57.492 1.05.846 1.44.354.39.771.69 1.251.9.48.204.996.306 1.548.306.33 0 .627-.018.891-.054.27-.036.516-.093.738-.171.228-.078.441-.177.639-.297.204-.126.405-.279.603-.459a.742.742 0 01.189-.126.426.426 0 01.207-.054zm10.586 1.071V293h-7.623v-13.014h2.421v11.016h5.202zm8.605-2.916l-1.584-4.329a9.474 9.474 0 01-.243-.684 22.281 22.281 0 01-.252-.855c-.078.306-.159.594-.243.864-.084.264-.165.495-.243.693l-1.575 4.311h4.14zm4.275 4.914h-1.872a.815.815 0 01-.513-.153 1.016 1.016 0 01-.297-.396l-.972-2.655h-5.391l-.972 2.655a.863.863 0 01-.279.378.779.779 0 01-.513.171h-1.89l5.121-13.014h2.466L346.852 293zm5.28-6.822c.456 0 .852-.057 1.188-.171.342-.114.621-.27.837-.468.222-.204.387-.444.495-.72.108-.276.162-.579.162-.909 0-.66-.219-1.167-.657-1.521-.432-.354-1.095-.531-1.989-.531h-1.548v4.32h1.512zM358.36 293h-2.187c-.414 0-.714-.162-.9-.486l-2.736-4.167a.946.946 0 00-.342-.333c-.12-.066-.3-.099-.54-.099h-1.035V293h-2.421v-13.014h3.969c.882 0 1.638.093 2.268.279.636.18 1.155.435 1.557.765.408.33.708.726.9 1.188.192.456.288.96.288 1.512 0 .438-.066.852-.198 1.242a3.46 3.46 0 01-.558 1.062c-.24.318-.54.597-.9.837-.354.24-.759.429-1.215.567.156.09.3.198.432.324.132.12.252.264.36.432L358.36 293zm3.835 0h-2.43v-13.014h2.43V293zm5.344-11.088v3.852h4.878v1.935h-4.878V293h-2.43v-13.014h8.208v1.926h-5.778zm13.354 6.048V293h-2.412v-5.04l-4.743-7.974h2.133c.21 0 .375.051.495.153.126.102.231.231.315.387l2.376 4.347c.138.258.258.501.36.729.108.228.204.456.288.684.078-.228.168-.456.27-.684.102-.228.219-.471.351-.729l2.367-4.347c.066-.132.165-.255.297-.369a.744.744 0 01.504-.171h2.142l-4.743 7.974zM323.879 241h-2.43v-13.014h2.43V241zm13.885-13.014V241h-1.242c-.192 0-.354-.03-.486-.09a1.204 1.204 0 01-.369-.324l-6.795-8.676c.036.396.054.762.054 1.098V241h-2.133v-13.014h1.269c.102 0 .189.006.261.018a.48.48 0 01.198.054c.06.024.117.063.171.117.054.048.114.114.18.198l6.822 8.712a23.28 23.28 0 01-.045-.621 9.701 9.701 0 01-.018-.567v-7.911h2.133zm14.049 0L346.557 241h-2.187l-5.256-13.014h1.944c.21 0 .381.051.513.153a.936.936 0 01.297.396l3.069 7.938c.102.258.198.543.288.855.096.306.186.627.27.963.072-.336.15-.657.234-.963.084-.312.177-.597.279-.855l3.051-7.938a.863.863 0 01.279-.378.815.815 0 01.522-.171h1.953zM355.59 241h-2.43v-13.014h2.43V241zm12.004-11.025h-3.924V241h-2.421v-11.025h-3.924v-1.989h10.269v1.989zm4.133-.063v3.609h4.554v1.863h-4.554v3.681h5.778V241h-8.208v-13.014h8.208v1.926h-5.778zm-31.166-53.926V189h-2.133v-8.406c0-.336.018-.699.054-1.089l-3.933 7.389c-.186.354-.471.531-.855.531h-.342c-.384 0-.669-.177-.855-.531l-3.978-7.416c.018.198.033.393.045.585.012.192.018.369.018.531V189h-2.133v-13.014h1.827c.108 0 .201.003.279.009a.7.7 0 01.207.045.416.416 0 01.171.117.909.909 0 01.153.216l3.897 7.227c.102.192.195.39.279.594.09.204.177.414.261.63.084-.222.171-.435.261-.639.09-.21.186-.411.288-.603l3.843-7.209a.909.909 0 01.153-.216.513.513 0 01.171-.117.812.812 0 01.216-.045c.078-.006.171-.009.279-.009h1.827zm5.334 1.926v3.609h4.554v1.863h-4.554v3.681h5.778V189h-8.208v-13.014h8.208v1.926h-5.778zm10.353 0v3.609h4.554v1.863h-4.554v3.681h5.778V189h-8.208v-13.014h8.208v1.926h-5.778zm17.014.063h-3.924V189h-2.421v-11.025h-3.924v-1.989h10.269v1.989zm-63.701-60.989V130h-2.133v-8.406c0-.336.018-.699.054-1.089l-3.933 7.389c-.186.354-.471.531-.855.531h-.342c-.384 0-.669-.177-.855-.531l-3.978-7.416c.018.198.033.393.045.585.012.192.018.369.018.531V130h-2.133v-13.014h1.827c.108 0 .201.003.279.009a.7.7 0 01.207.045.416.416 0 01.171.117.909.909 0 01.153.216l3.897 7.227c.102.192.195.39.279.594.09.204.177.414.261.63.084-.222.171-.435.261-.639.09-.21.186-.411.288-.603l3.843-7.209a.909.909 0 01.153-.216.513.513 0 01.171-.117.812.812 0 01.216-.045c.078-.006.171-.009.279-.009h1.827zm9.78 8.1l-1.584-4.329a9.474 9.474 0 01-.243-.684 22.281 22.281 0 01-.252-.855c-.078.306-.159.594-.243.864-.084.264-.165.495-.243.693l-1.575 4.311h4.14zm4.275 4.914h-1.872a.815.815 0 01-.513-.153 1.016 1.016 0 01-.297-.396l-.972-2.655h-5.391l-.972 2.655a.863.863 0 01-.279.378.779.779 0 01-.513.171h-1.89l5.121-13.014h2.466L323.616 130zm3.768-7.56h.567c.228 0 .417-.03.567-.09a.998.998 0 00.387-.306l3.591-4.545c.15-.192.306-.324.468-.396.168-.078.378-.117.63-.117h2.088l-4.383 5.409c-.258.33-.525.564-.801.702.198.072.375.174.531.306.162.126.315.294.459.504l4.518 6.093h-2.133c-.288 0-.504-.039-.648-.117a1.063 1.063 0 01-.351-.36l-3.681-4.806a.964.964 0 00-.396-.342c-.15-.066-.366-.099-.648-.099h-.765V130h-2.421v-13.014h2.421v5.454zm12.349-3.528v3.609h4.554v1.863h-4.554v3.681h5.778V130h-8.208v-13.014h8.208v1.926h-5.778zm19.23.441a.86.86 0 01-.234.279.51.51 0 01-.297.081.818.818 0 01-.414-.135 7.907 7.907 0 00-.522-.315 4.057 4.057 0 00-.72-.306 2.88 2.88 0 00-.963-.144c-.336 0-.63.042-.882.126a1.845 1.845 0 00-.639.333 1.36 1.36 0 00-.378.522 1.666 1.666 0 00-.126.657c0 .306.084.561.252.765.174.204.402.378.684.522.282.144.603.273.963.387.36.114.729.237 1.107.369.378.126.747.276 1.107.45.36.168.681.384.963.648.282.258.507.576.675.954.174.378.261.837.261 1.377 0 .588-.102 1.14-.306 1.656-.198.51-.492.957-.882 1.341a4.196 4.196 0 01-1.413.9c-.558.216-1.197.324-1.917.324-.414 0-.822-.042-1.224-.126a6.311 6.311 0 01-1.161-.342 6.269 6.269 0 01-1.035-.54 5.012 5.012 0 01-.864-.702l.711-1.161a.71.71 0 01.234-.207.568.568 0 01.306-.09c.15 0 .312.063.486.189.174.12.381.255.621.405.24.15.519.288.837.414.324.12.711.18 1.161.18.69 0 1.224-.162 1.602-.486.378-.33.567-.801.567-1.413 0-.342-.087-.621-.261-.837a1.976 1.976 0 00-.675-.54 4.88 4.88 0 00-.963-.378c-.36-.102-.726-.213-1.098-.333a9.468 9.468 0 01-1.098-.432 3.557 3.557 0 01-.963-.657 3.054 3.054 0 01-.684-1.008c-.168-.408-.252-.909-.252-1.503 0-.474.093-.936.279-1.386.192-.45.468-.849.828-1.197.36-.348.804-.627 1.332-.837.528-.21 1.134-.315 1.818-.315.768 0 1.476.12 2.124.36.648.24 1.2.576 1.656 1.008l-.603 1.143zm5.379-.441v3.609h4.554v1.863h-4.554v3.681h5.778V130h-8.208v-13.014h8.208v1.926h-5.778zm18.894-1.926V130h-1.242c-.192 0-.354-.03-.486-.09a1.204 1.204 0 01-.369-.324l-6.795-8.676c.036.396.054.762.054 1.098V130h-2.133v-13.014h1.269c.102 0 .189.006.261.018a.48.48 0 01.198.054c.06.024.117.063.171.117.054.048.114.114.18.198l6.822 8.712a23.28 23.28 0 01-.045-.621 9.701 9.701 0 01-.018-.567v-7.911h2.133zm9.829 2.367a.86.86 0 01-.234.279.51.51 0 01-.297.081.818.818 0 01-.414-.135 7.907 7.907 0 00-.522-.315 4.057 4.057 0 00-.72-.306 2.88 2.88 0 00-.963-.144c-.336 0-.63.042-.882.126a1.845 1.845 0 00-.639.333 1.36 1.36 0 00-.378.522 1.666 1.666 0 00-.126.657c0 .306.084.561.252.765.174.204.402.378.684.522.282.144.603.273.963.387.36.114.729.237 1.107.369.378.126.747.276 1.107.45.36.168.681.384.963.648.282.258.507.576.675.954.174.378.261.837.261 1.377 0 .588-.102 1.14-.306 1.656-.198.51-.492.957-.882 1.341a4.196 4.196 0 01-1.413.9c-.558.216-1.197.324-1.917.324-.414 0-.822-.042-1.224-.126a6.311 6.311 0 01-1.161-.342 6.269 6.269 0 01-1.035-.54 5.012 5.012 0 01-.864-.702l.711-1.161a.71.71 0 01.234-.207.568.568 0 01.306-.09c.15 0 .312.063.486.189.174.12.381.255.621.405.24.15.519.288.837.414.324.12.711.18 1.161.18.69 0 1.224-.162 1.602-.486.378-.33.567-.801.567-1.413 0-.342-.087-.621-.261-.837a1.976 1.976 0 00-.675-.54 4.88 4.88 0 00-.963-.378c-.36-.102-.726-.213-1.098-.333a9.468 9.468 0 01-1.098-.432 3.557 3.557 0 01-.963-.657 3.054 3.054 0 01-.684-1.008c-.168-.408-.252-.909-.252-1.503 0-.474.093-.936.279-1.386.192-.45.468-.849.828-1.197.36-.348.804-.627 1.332-.837.528-.21 1.134-.315 1.818-.315.768 0 1.476.12 2.124.36.648.24 1.2.576 1.656 1.008l-.603 1.143zm5.378-.441v3.609h4.554v1.863h-4.554v3.681h5.778V130h-8.208v-13.014h8.208v1.926h-5.778zm-94.831 27.868h-3.492v3.708h-1.809v-3.708h-3.474v-1.647h3.474v-3.69h1.809v3.69h3.492v1.647zm20.767-7.794V152h-2.133v-8.406c0-.336.018-.699.054-1.089l-3.933 7.389c-.186.354-.471.531-.855.531h-.342c-.384 0-.669-.177-.855-.531l-3.978-7.416c.018.198.033.393.045.585.012.192.018.369.018.531V152h-2.133v-13.014h1.827c.108 0 .201.003.279.009a.7.7 0 01.207.045.416.416 0 01.171.117.909.909 0 01.153.216l3.897 7.227c.102.192.195.39.279.594.09.204.177.414.261.63.084-.222.171-.435.261-.639.09-.21.186-.411.288-.603l3.843-7.209a.909.909 0 01.153-.216.513.513 0 01.171-.117.812.812 0 01.216-.045c.078-.006.171-.009.279-.009h1.827zm5.334 1.926v3.609h4.554v1.863h-4.554v3.681h5.778V152h-8.208v-13.014h8.208v1.926h-5.778zm14.8 6.174l-1.584-4.329a9.474 9.474 0 01-.243-.684 22.281 22.281 0 01-.252-.855c-.078.306-.159.594-.243.864-.084.264-.165.495-.243.693l-1.575 4.311h4.14zm4.275 4.914h-1.872a.815.815 0 01-.513-.153 1.028 1.028 0 01-.298-.396l-.971-2.655h-5.391l-.972 2.655a.863.863 0 01-.279.378.779.779 0 01-.513.171h-1.891l5.122-13.014h2.466L348.788 152zm12.318-13.014V152h-1.242c-.192 0-.354-.03-.486-.09a1.204 1.204 0 01-.369-.324l-6.795-8.676c.036.396.054.762.054 1.098V152h-2.133v-13.014h1.269c.102 0 .189.006.261.018a.48.48 0 01.198.054c.06.024.117.063.171.117.054.048.114.114.18.198l6.822 8.712a23.28 23.28 0 01-.045-.621 9.701 9.701 0 01-.018-.567v-7.911h2.133zM366.434 152h-2.43v-13.014h2.43V152zm13.884-13.014V152h-1.242c-.192 0-.354-.03-.486-.09a1.204 1.204 0 01-.369-.324l-6.795-8.676c.036.396.054.762.054 1.098V152h-2.133v-13.014h1.269c.102 0 .189.006.261.018a.48.48 0 01.198.054c.06.024.117.063.171.117.054.048.114.114.18.198l6.822 8.712a23.28 23.28 0 01-.045-.621 9.701 9.701 0 01-.018-.567v-7.911h2.133zm13.627 6.489v5.265a6.967 6.967 0 01-2.115 1.071 8.334 8.334 0 01-2.394.333c-1.062 0-2.025-.165-2.889-.495a6.515 6.515 0 01-2.205-1.377 6.063 6.063 0 01-1.404-2.106c-.33-.816-.495-1.707-.495-2.673 0-.978.159-1.875.477-2.691a6.104 6.104 0 011.35-2.106 6.093 6.093 0 012.133-1.368c.834-.324 1.77-.486 2.808-.486.528 0 1.02.042 1.476.126.462.084.888.201 1.278.351a5.32 5.32 0 011.08.531c.324.21.621.441.891.693l-.693 1.098a.68.68 0 01-.423.324c-.174.036-.363-.009-.567-.135l-.594-.342a3.78 3.78 0 00-.666-.297 5.251 5.251 0 00-.819-.207 5.952 5.952 0 00-1.044-.081c-.642 0-1.224.108-1.746.324a3.693 3.693 0 00-1.323.927 4.178 4.178 0 00-.846 1.449 5.678 5.678 0 00-.297 1.89c0 .744.105 1.41.315 1.998.216.582.516 1.077.9 1.485.39.402.858.711 1.404.927.546.21 1.155.315 1.827.315.48 0 .909-.051 1.287-.153.378-.102.747-.24 1.107-.414v-2.358h-1.638a.52.52 0 01-.369-.126.458.458 0 01-.126-.324v-1.368h4.32zM264.382 31.178c.456 0 .852-.057 1.188-.171.342-.114.621-.27.837-.468.222-.204.387-.444.495-.72.108-.276.162-.579.162-.909 0-.66-.219-1.167-.657-1.521-.432-.354-1.095-.531-1.989-.531h-1.548v4.32h1.512zM270.61 38h-2.187c-.414 0-.714-.162-.9-.486l-2.736-4.167a.946.946 0 00-.342-.333c-.12-.066-.3-.099-.54-.099h-1.035V38h-2.421V24.986h3.969c.882 0 1.638.093 2.268.279.636.18 1.155.435 1.557.765.408.33.708.726.9 1.188.192.456.288.96.288 1.512 0 .438-.066.852-.198 1.242a3.46 3.46 0 01-.558 1.062c-.24.318-.54.597-.9.837-.354.24-.759.429-1.215.567.156.09.3.198.432.324.132.12.252.264.36.432L270.61 38zm3.835-11.088v3.609h4.554v1.863h-4.554v3.681h5.778V38h-8.208V24.986h8.208v1.926h-5.778zm10.354 0v3.852h4.878v1.935h-4.878V38h-2.43V24.986h8.208v1.926h-5.778zm15.388 9.09V38h-7.623V24.986h2.421v11.016h5.202zm4.159-9.09v3.609h4.554v1.863h-4.554v3.681h5.778V38h-8.208V24.986h8.208v1.926h-5.778zm16.579 8.019c.132 0 .249.051.351.153l.954 1.035a5.23 5.23 0 01-1.953 1.503c-.768.348-1.692.522-2.772.522-.966 0-1.836-.165-2.61-.495a5.753 5.753 0 01-1.971-1.377 6.083 6.083 0 01-1.26-2.106c-.288-.816-.432-1.707-.432-2.673 0-.978.156-1.872.468-2.682a6.201 6.201 0 011.314-2.106 5.96 5.96 0 012.034-1.368c.786-.33 1.656-.495 2.61-.495.948 0 1.788.156 2.52.468.738.312 1.365.72 1.881 1.224l-.81 1.125a.708.708 0 01-.189.189.502.502 0 01-.306.081.622.622 0 01-.279-.072 7.268 7.268 0 01-.315-.189 7.954 7.954 0 00-.396-.252 3.022 3.022 0 00-.522-.243 3.71 3.71 0 00-.693-.189 4.432 4.432 0 00-.9-.081c-.582 0-1.116.105-1.602.315a3.41 3.41 0 00-1.242.9c-.348.39-.618.87-.81 1.44-.192.564-.288 1.209-.288 1.935 0 .732.102 1.383.306 1.953.21.57.492 1.05.846 1.44.354.39.771.69 1.251.9.48.204.996.306 1.548.306.33 0 .627-.018.891-.054.27-.036.516-.093.738-.171.228-.078.441-.177.639-.297.204-.126.405-.279.603-.459a.742.742 0 01.189-.126.426.426 0 01.207-.054zm12.053-7.956h-3.924V38h-2.421V26.975h-3.924v-1.989h10.269v1.989zm11.814 6.111l-1.584-4.329a9.474 9.474 0 01-.243-.684 22.281 22.281 0 01-.252-.855c-.078.306-.159.594-.243.864-.084.264-.165.495-.243.693l-1.575 4.311h4.14zM349.067 38h-1.872a.815.815 0 01-.513-.153 1.016 1.016 0 01-.297-.396l-.972-2.655h-5.391l-.972 2.655a.863.863 0 01-.279.378.779.779 0 01-.513.171h-1.89l5.121-13.014h2.466L349.067 38zm12.318-13.014V38h-1.242c-.192 0-.354-.03-.486-.09a1.204 1.204 0 01-.369-.324l-6.795-8.676c.036.396.054.762.054 1.098V38h-2.133V24.986h1.269c.102 0 .189.006.261.018a.48.48 0 01.198.054c.06.024.117.063.171.117.054.048.114.114.18.198l6.822 8.712a23.28 23.28 0 01-.045-.621 9.701 9.701 0 01-.018-.567v-7.911h2.133zm14.454 6.507c0 .954-.159 1.83-.477 2.628a6.037 6.037 0 01-1.341 2.061 6 6 0 01-2.079 1.341c-.81.318-1.71.477-2.7.477h-4.959V24.986h4.959c.99 0 1.89.162 2.7.486a6 6 0 012.079 1.341 5.942 5.942 0 011.341 2.052c.318.798.477 1.674.477 2.628zm-2.484 0c0-.714-.096-1.353-.288-1.917a3.85 3.85 0 00-.819-1.44 3.499 3.499 0 00-1.296-.909c-.504-.21-1.074-.315-1.71-.315h-2.529v9.162h2.529c.636 0 1.206-.105 1.71-.315.51-.21.942-.51 1.296-.9.36-.396.633-.876.819-1.44.192-.57.288-1.212.288-1.926zm16.621 4.509V38h-7.623V24.986h2.421v11.016h5.202zm4.159-9.09v3.609h4.554v1.863h-4.554v3.681h5.778V38h-8.208V24.986h8.208v1.926h-5.778zm14.799 6.174l-1.584-4.329a9.474 9.474 0 01-.243-.684 22.281 22.281 0 01-.252-.855c-.078.306-.159.594-.243.864-.084.264-.165.495-.243.693l-1.575 4.311h4.14zM413.209 38h-1.872a.815.815 0 01-.513-.153 1.016 1.016 0 01-.297-.396l-.972-2.655h-5.391l-.972 2.655a.863.863 0 01-.279.378.779.779 0 01-.513.171h-1.89l5.121-13.014h2.466L413.209 38zm5.28-6.822c.456 0 .852-.057 1.188-.171.342-.114.621-.27.837-.468.222-.204.387-.444.495-.72.108-.276.162-.579.162-.909 0-.66-.219-1.167-.657-1.521-.432-.354-1.095-.531-1.989-.531h-1.548v4.32h1.512zM424.717 38h-2.187c-.414 0-.714-.162-.9-.486l-2.736-4.167a.946.946 0 00-.342-.333c-.12-.066-.3-.099-.54-.099h-1.035V38h-2.421V24.986h3.969c.882 0 1.638.093 2.268.279.636.18 1.155.435 1.557.765.408.33.708.726.9 1.188.192.456.288.96.288 1.512 0 .438-.066.852-.198 1.242a3.46 3.46 0 01-.558 1.062c-.24.318-.54.597-.9.837-.354.24-.759.429-1.215.567.156.09.3.198.432.324.132.12.252.264.36.432L424.717 38zm12.377-13.014V38h-1.242c-.192 0-.354-.03-.486-.09a1.204 1.204 0 01-.369-.324l-6.795-8.676c.036.396.054.762.054 1.098V38h-2.133V24.986h1.269c.102 0 .189.006.261.018a.48.48 0 01.198.054c.06.024.117.063.171.117.054.048.114.114.18.198l6.822 8.712a23.28 23.28 0 01-.045-.621 9.701 9.701 0 01-.018-.567v-7.911h2.133zm-96.769 55.1l-1.584-4.329a9.474 9.474 0 01-.243-.684 22.281 22.281 0 01-.252-.855c-.078.306-.159.594-.243.864-.084.264-.165.495-.243.693l-1.575 4.311h4.14zM344.6 85h-1.872a.815.815 0 01-.513-.153 1.016 1.016 0 01-.297-.396l-.972-2.655h-5.391l-.972 2.655a.863.863 0 01-.279.378.779.779 0 01-.513.171h-1.89l5.121-13.014h2.466L344.6 85zm9.897-3.069c.132 0 .249.051.351.153l.954 1.035a5.23 5.23 0 01-1.953 1.503c-.768.348-1.692.522-2.772.522-.966 0-1.836-.165-2.61-.495a5.753 5.753 0 01-1.971-1.377 6.083 6.083 0 01-1.26-2.106c-.288-.816-.432-1.707-.432-2.673 0-.978.156-1.872.468-2.682a6.201 6.201 0 011.314-2.106 5.96 5.96 0 012.034-1.368c.786-.33 1.656-.495 2.61-.495.948 0 1.788.156 2.52.468.738.312 1.365.72 1.881 1.224l-.81 1.125a.708.708 0 01-.189.189.502.502 0 01-.306.081.622.622 0 01-.279-.072 7.268 7.268 0 01-.315-.189 7.954 7.954 0 00-.396-.252 3.022 3.022 0 00-.522-.243 3.71 3.71 0 00-.693-.189 4.432 4.432 0 00-.9-.081c-.582 0-1.116.105-1.602.315a3.41 3.41 0 00-1.242.9c-.348.39-.618.87-.81 1.44-.192.564-.288 1.209-.288 1.935 0 .732.102 1.383.306 1.953.21.57.492 1.05.846 1.44.354.39.771.69 1.251.9.48.204.996.306 1.548.306.33 0 .627-.018.891-.054.27-.036.516-.093.738-.171.228-.078.441-.177.639-.297.204-.126.405-.279.603-.459a.742.742 0 01.189-.126.426.426 0 01.207-.054zm12.054-7.956h-3.924V85h-2.421V73.975h-3.924v-1.989h10.269v1.989z" fill="#1B0B02"/></svg>