<svg width="36" height="36" fill="none" xmlns="http://www.w3.org/2000/svg"><g clip-path="url(#clip0)" fill="#1B0B02"><path d="M17.961 10.04a2.02 2.02 0 100-4.04 2.02 2.02 0 000 4.04zm.704.964a3.679 3.679 0 00-1.545.018c-3.359.394-4.45 4.281-4.141 7.245.133 1.282 2.154 1.295 2.019 0-.112-1.08-.064-2.71.51-3.869v4.225c0 .05.005.096.007.144-.002.023-.007.042-.007.066 0 3.352-.006 6.703-.144 10.052-.062 1.49 2.247 1.483 2.308 0 .109-2.625.136-5.252.142-7.879a2.7 2.7 0 00.328.001c.007 2.627.034 5.254.141 7.878.061 1.483 2.37 1.49 2.308 0-.138-3.35-.143-6.7-.143-10.052 0-.104-.014-.199-.035-.29-.003-1.455-.059-2.912-.042-4.366.688 1.164.75 2.939.631 4.09-.135 1.294 1.886 1.28 2.02 0 .314-3.026-.829-7.014-4.357-7.263z"/></g><circle cx="18" cy="18" r="17" stroke="#1B0B02" stroke-width="2"/><defs><clipPath id="clip0"><path fill="#fff" transform="translate(6 6)" d="M0 0h24v24H0z"/></clipPath></defs></svg>