<svg width="36" height="36" viewBox="0 0 36 36" fill="none" xmlns="http://www.w3.org/2000/svg">
<circle cx="18" cy="18" r="17" stroke="#1B0B02" stroke-width="2"/>
<path d="M16.655 21.4425C16.765 21.4425 16.8625 21.485 16.9475 21.57L17.7425 22.4325C17.3025 22.9775 16.76 23.395 16.115 23.685C15.475 23.975 14.705 24.12 13.805 24.12C13 24.12 12.275 23.9825 11.63 23.7075C10.99 23.4325 10.4425 23.05 9.9875 22.56C9.5325 22.07 9.1825 21.485 8.9375 20.805C8.6975 20.125 8.5775 19.3825 8.5775 18.5775C8.5775 17.7625 8.7075 17.0175 8.9675 16.3425C9.2275 15.6625 9.5925 15.0775 10.0625 14.5875C10.5375 14.0975 11.1025 13.7175 11.7575 13.4475C12.4125 13.1725 13.1375 13.035 13.9325 13.035C14.7225 13.035 15.4225 13.165 16.0325 13.425C16.6475 13.685 17.17 14.025 17.6 14.445L16.925 15.3825C16.885 15.4425 16.8325 15.495 16.7675 15.54C16.7075 15.585 16.6225 15.6075 16.5125 15.6075C16.4375 15.6075 16.36 15.5875 16.28 15.5475C16.2 15.5025 16.1125 15.45 16.0175 15.39C15.9225 15.325 15.8125 15.255 15.6875 15.18C15.5625 15.105 15.4175 15.0375 15.2525 14.9775C15.0875 14.9125 14.895 14.86 14.675 14.82C14.46 14.775 14.21 14.7525 13.925 14.7525C13.44 14.7525 12.995 14.84 12.59 15.015C12.19 15.185 11.845 15.435 11.555 15.765C11.265 16.09 11.04 16.49 10.88 16.965C10.72 17.435 10.64 17.9725 10.64 18.5775C10.64 19.1875 10.725 19.73 10.895 20.205C11.07 20.68 11.305 21.08 11.6 21.405C11.895 21.73 12.2425 21.98 12.6425 22.155C13.0425 22.325 13.4725 22.41 13.9325 22.41C14.2075 22.41 14.455 22.395 14.675 22.365C14.9 22.335 15.105 22.2875 15.29 22.2225C15.48 22.1575 15.6575 22.075 15.8225 21.975C15.9925 21.87 16.16 21.7425 16.325 21.5925C16.375 21.5475 16.4275 21.5125 16.4825 21.4875C16.5375 21.4575 16.595 21.4425 16.655 21.4425ZM26.3376 21.4425C26.4476 21.4425 26.5451 21.485 26.6301 21.57L27.4251 22.4325C26.9851 22.9775 26.4426 23.395 25.7976 23.685C25.1576 23.975 24.3876 24.12 23.4876 24.12C22.6826 24.12 21.9576 23.9825 21.3126 23.7075C20.6726 23.4325 20.1251 23.05 19.6701 22.56C19.2151 22.07 18.8651 21.485 18.6201 20.805C18.3801 20.125 18.2601 19.3825 18.2601 18.5775C18.2601 17.7625 18.3901 17.0175 18.6501 16.3425C18.9101 15.6625 19.2751 15.0775 19.7451 14.5875C20.2201 14.0975 20.7851 13.7175 21.4401 13.4475C22.0951 13.1725 22.8201 13.035 23.6151 13.035C24.4051 13.035 25.1051 13.165 25.7151 13.425C26.3301 13.685 26.8526 14.025 27.2826 14.445L26.6076 15.3825C26.5676 15.4425 26.5151 15.495 26.4501 15.54C26.3901 15.585 26.3051 15.6075 26.1951 15.6075C26.1201 15.6075 26.0426 15.5875 25.9626 15.5475C25.8826 15.5025 25.7951 15.45 25.7001 15.39C25.6051 15.325 25.4951 15.255 25.3701 15.18C25.2451 15.105 25.1001 15.0375 24.9351 14.9775C24.7701 14.9125 24.5776 14.86 24.3576 14.82C24.1426 14.775 23.8926 14.7525 23.6076 14.7525C23.1226 14.7525 22.6776 14.84 22.2726 15.015C21.8726 15.185 21.5276 15.435 21.2376 15.765C20.9476 16.09 20.7226 16.49 20.5626 16.965C20.4026 17.435 20.3226 17.9725 20.3226 18.5775C20.3226 19.1875 20.4076 19.73 20.5776 20.205C20.7526 20.68 20.9876 21.08 21.2826 21.405C21.5776 21.73 21.9251 21.98 22.3251 22.155C22.7251 22.325 23.1551 22.41 23.6151 22.41C23.8901 22.41 24.1376 22.395 24.3576 22.365C24.5826 22.335 24.7876 22.2875 24.9726 22.2225C25.1626 22.1575 25.3401 22.075 25.5051 21.975C25.6751 21.87 25.8426 21.7425 26.0076 21.5925C26.0576 21.5475 26.1101 21.5125 26.1651 21.4875C26.2201 21.4575 26.2776 21.4425 26.3376 21.4425Z" fill="#1B0B02"/>
</svg>
