<svg width="698" height="698" viewBox="0 0 698 698" fill="none" xmlns="http://www.w3.org/2000/svg">
<circle cx="349" cy="349" r="349" fill="#A9A286"/>
<circle cx="349" cy="369" r="317" fill="#B1AB90"/>
<circle cx="349" cy="389" r="285" fill="#C1BBA0"/>
<circle cx="349" cy="409" r="253" fill="#D0CAB0"/>
<circle cx="349" cy="429" r="221" fill="#DED8C0"/>
<circle cx="349" cy="449" r="189" fill="#EBE5CE"/>
<circle cx="349" cy="469" r="157" fill="#F5F0DC"/>
<circle cx="349" cy="489" r="125" fill="#FDF7E4"/>
<path d="M330.379 485.353C330.307 485.479 330.229 485.572 330.145 485.632C330.067 485.686 329.968 485.713 329.848 485.713C329.722 485.713 329.584 485.668 329.434 485.578C329.29 485.482 329.116 485.377 328.912 485.263C328.708 485.149 328.468 485.047 328.192 484.957C327.922 484.861 327.601 484.813 327.229 484.813C326.893 484.813 326.599 484.855 326.347 484.939C326.095 485.017 325.882 485.128 325.708 485.272C325.54 485.416 325.414 485.59 325.33 485.794C325.246 485.992 325.204 486.211 325.204 486.451C325.204 486.757 325.288 487.012 325.456 487.216C325.63 487.42 325.858 487.594 326.14 487.738C326.422 487.882 326.743 488.011 327.103 488.125C327.463 488.239 327.832 488.362 328.21 488.494C328.588 488.62 328.957 488.77 329.317 488.944C329.677 489.112 329.998 489.328 330.28 489.592C330.562 489.85 330.787 490.168 330.955 490.546C331.129 490.924 331.216 491.383 331.216 491.923C331.216 492.511 331.114 493.063 330.91 493.579C330.712 494.089 330.418 494.536 330.028 494.92C329.644 495.298 329.173 495.598 328.615 495.82C328.057 496.036 327.418 496.144 326.698 496.144C326.284 496.144 325.876 496.102 325.474 496.018C325.072 495.94 324.685 495.826 324.313 495.676C323.947 495.526 323.602 495.346 323.278 495.136C322.954 494.926 322.666 494.692 322.414 494.434L323.125 493.273C323.185 493.189 323.263 493.12 323.359 493.066C323.455 493.006 323.557 492.976 323.665 492.976C323.815 492.976 323.977 493.039 324.151 493.165C324.325 493.285 324.532 493.42 324.772 493.57C325.012 493.72 325.291 493.858 325.609 493.984C325.933 494.104 326.32 494.164 326.77 494.164C327.46 494.164 327.994 494.002 328.372 493.678C328.75 493.348 328.939 492.877 328.939 492.265C328.939 491.923 328.852 491.644 328.678 491.428C328.51 491.212 328.285 491.032 328.003 490.888C327.721 490.738 327.4 490.612 327.04 490.51C326.68 490.408 326.314 490.297 325.942 490.177C325.57 490.057 325.204 489.913 324.844 489.745C324.484 489.577 324.163 489.358 323.881 489.088C323.599 488.818 323.371 488.482 323.197 488.08C323.029 487.672 322.945 487.171 322.945 486.577C322.945 486.103 323.038 485.641 323.224 485.191C323.416 484.741 323.692 484.342 324.052 483.994C324.412 483.646 324.856 483.367 325.384 483.157C325.912 482.947 326.518 482.842 327.202 482.842C327.97 482.842 328.678 482.962 329.326 483.202C329.974 483.442 330.526 483.778 330.982 484.21L330.379 485.353ZM342.418 484.975H338.494V496H336.073V484.975H332.149V482.986H342.418V484.975ZM349.731 491.086L348.147 486.757C348.069 486.565 347.988 486.337 347.904 486.073C347.82 485.809 347.736 485.524 347.652 485.218C347.574 485.524 347.493 485.812 347.409 486.082C347.325 486.346 347.244 486.577 347.166 486.775L345.591 491.086H349.731ZM354.006 496H352.134C351.924 496 351.753 495.949 351.621 495.847C351.489 495.739 351.39 495.607 351.324 495.451L350.352 492.796H344.961L343.989 495.451C343.941 495.589 343.848 495.715 343.71 495.829C343.572 495.943 343.401 496 343.197 496H341.307L346.428 482.986H348.894L354.006 496ZM359.286 489.178C359.742 489.178 360.138 489.121 360.474 489.007C360.816 488.893 361.095 488.737 361.311 488.539C361.533 488.335 361.698 488.095 361.806 487.819C361.914 487.543 361.968 487.24 361.968 486.91C361.968 486.25 361.749 485.743 361.311 485.389C360.879 485.035 360.216 484.858 359.322 484.858H357.774V489.178H359.286ZM365.514 496H363.327C362.913 496 362.613 495.838 362.427 495.514L359.691 491.347C359.589 491.191 359.475 491.08 359.349 491.014C359.229 490.948 359.049 490.915 358.809 490.915H357.774V496H355.353V482.986H359.322C360.204 482.986 360.96 483.079 361.59 483.265C362.226 483.445 362.745 483.7 363.147 484.03C363.555 484.36 363.855 484.756 364.047 485.218C364.239 485.674 364.335 486.178 364.335 486.73C364.335 487.168 364.269 487.582 364.137 487.972C364.011 488.362 363.825 488.716 363.579 489.034C363.339 489.352 363.039 489.631 362.679 489.871C362.325 490.111 361.92 490.3 361.464 490.438C361.62 490.528 361.764 490.636 361.896 490.762C362.028 490.882 362.148 491.026 362.256 491.194L365.514 496ZM375.676 484.975H371.752V496H369.331V484.975H365.407V482.986H375.676V484.975Z" fill="#1B0B02"/>
<path d="M337.386 341.931C337.518 341.931 337.635 341.982 337.737 342.084L338.691 343.119C338.163 343.773 337.512 344.274 336.738 344.622C335.97 344.97 335.046 345.144 333.966 345.144C333 345.144 332.13 344.979 331.356 344.649C330.588 344.319 329.931 343.86 329.385 343.272C328.839 342.684 328.419 341.982 328.125 341.166C327.837 340.35 327.693 339.459 327.693 338.493C327.693 337.515 327.849 336.621 328.161 335.811C328.473 334.995 328.911 334.293 329.475 333.705C330.045 333.117 330.723 332.661 331.509 332.337C332.295 332.007 333.165 331.842 334.119 331.842C335.067 331.842 335.907 331.998 336.639 332.31C337.377 332.622 338.004 333.03 338.52 333.534L337.71 334.659C337.662 334.731 337.599 334.794 337.521 334.848C337.449 334.902 337.347 334.929 337.215 334.929C337.125 334.929 337.032 334.905 336.936 334.857C336.84 334.803 336.735 334.74 336.621 334.668C336.507 334.59 336.375 334.506 336.225 334.416C336.075 334.326 335.901 334.245 335.703 334.173C335.505 334.095 335.274 334.032 335.01 333.984C334.752 333.93 334.452 333.903 334.11 333.903C333.528 333.903 332.994 334.008 332.508 334.218C332.028 334.422 331.614 334.722 331.266 335.118C330.918 335.508 330.648 335.988 330.456 336.558C330.264 337.122 330.168 337.767 330.168 338.493C330.168 339.225 330.27 339.876 330.474 340.446C330.684 341.016 330.966 341.496 331.32 341.886C331.674 342.276 332.091 342.576 332.571 342.786C333.051 342.99 333.567 343.092 334.119 343.092C334.449 343.092 334.746 343.074 335.01 343.038C335.28 343.002 335.526 342.945 335.748 342.867C335.976 342.789 336.189 342.69 336.387 342.57C336.591 342.444 336.792 342.291 336.99 342.111C337.05 342.057 337.113 342.015 337.179 341.985C337.245 341.949 337.314 341.931 337.386 341.931ZM347.225 340.086L345.641 335.757C345.563 335.565 345.482 335.337 345.398 335.073C345.314 334.809 345.23 334.524 345.146 334.218C345.068 334.524 344.987 334.812 344.903 335.082C344.819 335.346 344.738 335.577 344.66 335.775L343.085 340.086H347.225ZM351.5 345H349.628C349.418 345 349.247 344.949 349.115 344.847C348.983 344.739 348.884 344.607 348.818 344.451L347.846 341.796H342.455L341.483 344.451C341.435 344.589 341.342 344.715 341.204 344.829C341.066 344.943 340.895 345 340.691 345H338.801L343.922 331.986H346.388L351.5 345ZM360.47 343.002V345H352.847V331.986H355.268V343.002H360.47ZM369.822 343.002V345H362.199V331.986H364.62V343.002H369.822Z" fill="#1B0B02"/>
<path d="M323.386 289.931C323.518 289.931 323.635 289.982 323.737 290.084L324.691 291.119C324.163 291.773 323.512 292.274 322.738 292.622C321.97 292.97 321.046 293.144 319.966 293.144C319 293.144 318.13 292.979 317.356 292.649C316.588 292.319 315.931 291.86 315.385 291.272C314.839 290.684 314.419 289.982 314.125 289.166C313.837 288.35 313.693 287.459 313.693 286.493C313.693 285.515 313.849 284.621 314.161 283.811C314.473 282.995 314.911 282.293 315.475 281.705C316.045 281.117 316.723 280.661 317.509 280.337C318.295 280.007 319.165 279.842 320.119 279.842C321.067 279.842 321.907 279.998 322.639 280.31C323.377 280.622 324.004 281.03 324.52 281.534L323.71 282.659C323.662 282.731 323.599 282.794 323.521 282.848C323.449 282.902 323.347 282.929 323.215 282.929C323.125 282.929 323.032 282.905 322.936 282.857C322.84 282.803 322.735 282.74 322.621 282.668C322.507 282.59 322.375 282.506 322.225 282.416C322.075 282.326 321.901 282.245 321.703 282.173C321.505 282.095 321.274 282.032 321.01 281.984C320.752 281.93 320.452 281.903 320.11 281.903C319.528 281.903 318.994 282.008 318.508 282.218C318.028 282.422 317.614 282.722 317.266 283.118C316.918 283.508 316.648 283.988 316.456 284.558C316.264 285.122 316.168 285.767 316.168 286.493C316.168 287.225 316.27 287.876 316.474 288.446C316.684 289.016 316.966 289.496 317.32 289.886C317.674 290.276 318.091 290.576 318.571 290.786C319.051 290.99 319.567 291.092 320.119 291.092C320.449 291.092 320.746 291.074 321.01 291.038C321.28 291.002 321.526 290.945 321.748 290.867C321.976 290.789 322.189 290.69 322.387 290.57C322.591 290.444 322.792 290.291 322.99 290.111C323.05 290.057 323.113 290.015 323.179 289.985C323.245 289.949 323.314 289.931 323.386 289.931ZM333.972 291.002V293H326.349V279.986H328.77V291.002H333.972ZM342.577 288.086L340.993 283.757C340.915 283.565 340.834 283.337 340.75 283.073C340.666 282.809 340.582 282.524 340.498 282.218C340.42 282.524 340.339 282.812 340.255 283.082C340.171 283.346 340.09 283.577 340.012 283.775L338.437 288.086H342.577ZM346.852 293H344.98C344.77 293 344.599 292.949 344.467 292.847C344.335 292.739 344.236 292.607 344.17 292.451L343.198 289.796H337.807L336.835 292.451C336.787 292.589 336.694 292.715 336.556 292.829C336.418 292.943 336.247 293 336.043 293H334.153L339.274 279.986H341.74L346.852 293ZM352.132 286.178C352.588 286.178 352.984 286.121 353.32 286.007C353.662 285.893 353.941 285.737 354.157 285.539C354.379 285.335 354.544 285.095 354.652 284.819C354.76 284.543 354.814 284.24 354.814 283.91C354.814 283.25 354.595 282.743 354.157 282.389C353.725 282.035 353.062 281.858 352.168 281.858H350.62V286.178H352.132ZM358.36 293H356.173C355.759 293 355.459 292.838 355.273 292.514L352.537 288.347C352.435 288.191 352.321 288.08 352.195 288.014C352.075 287.948 351.895 287.915 351.655 287.915H350.62V293H348.199V279.986H352.168C353.05 279.986 353.806 280.079 354.436 280.265C355.072 280.445 355.591 280.7 355.993 281.03C356.401 281.36 356.701 281.756 356.893 282.218C357.085 282.674 357.181 283.178 357.181 283.73C357.181 284.168 357.115 284.582 356.983 284.972C356.857 285.362 356.671 285.716 356.425 286.034C356.185 286.352 355.885 286.631 355.525 286.871C355.171 287.111 354.766 287.3 354.31 287.438C354.466 287.528 354.61 287.636 354.742 287.762C354.874 287.882 354.994 288.026 355.102 288.194L358.36 293ZM362.195 293H359.765V279.986H362.195V293ZM367.539 281.912V285.764H372.417V287.699H367.539V293H365.109V279.986H373.317V281.912H367.539ZM380.893 287.96V293H378.481V287.96L373.738 279.986H375.871C376.081 279.986 376.246 280.037 376.366 280.139C376.492 280.241 376.597 280.37 376.681 280.526L379.057 284.873C379.195 285.131 379.315 285.374 379.417 285.602C379.525 285.83 379.621 286.058 379.705 286.286C379.783 286.058 379.873 285.83 379.975 285.602C380.077 285.374 380.194 285.131 380.326 284.873L382.693 280.526C382.759 280.394 382.858 280.271 382.99 280.157C383.122 280.043 383.29 279.986 383.494 279.986H385.636L380.893 287.96Z" fill="#1B0B02"/>
<path d="M323.879 241H321.449V227.986H323.879V241ZM337.764 227.986V241H336.522C336.33 241 336.168 240.97 336.036 240.91C335.91 240.844 335.787 240.736 335.667 240.586L328.872 231.91C328.908 232.306 328.926 232.672 328.926 233.008V241H326.793V227.986H328.062C328.164 227.986 328.251 227.992 328.323 228.004C328.401 228.01 328.467 228.028 328.521 228.058C328.581 228.082 328.638 228.121 328.692 228.175C328.746 228.223 328.806 228.289 328.872 228.373L335.694 237.085C335.676 236.875 335.661 236.668 335.649 236.464C335.637 236.26 335.631 236.071 335.631 235.897V227.986H337.764ZM351.813 227.986L346.557 241H344.37L339.114 227.986H341.058C341.268 227.986 341.439 228.037 341.571 228.139C341.703 228.241 341.802 228.373 341.868 228.535L344.937 236.473C345.039 236.731 345.135 237.016 345.225 237.328C345.321 237.634 345.411 237.955 345.495 238.291C345.567 237.955 345.645 237.634 345.729 237.328C345.813 237.016 345.906 236.731 346.008 236.473L349.059 228.535C349.107 228.397 349.2 228.271 349.338 228.157C349.482 228.043 349.656 227.986 349.86 227.986H351.813ZM355.59 241H353.16V227.986H355.59V241ZM367.594 229.975H363.67V241H361.249V229.975H357.325V227.986H367.594V229.975ZM371.727 229.912V233.521H376.281V235.384H371.727V239.065H377.505V241H369.297V227.986H377.505V229.912H371.727Z" fill="#1B0B02"/>
<path d="M340.561 175.986V189H338.428V180.594C338.428 180.258 338.446 179.895 338.482 179.505L334.549 186.894C334.363 187.248 334.078 187.425 333.694 187.425H333.352C332.968 187.425 332.683 187.248 332.497 186.894L328.519 179.478C328.537 179.676 328.552 179.871 328.564 180.063C328.576 180.255 328.582 180.432 328.582 180.594V189H326.449V175.986H328.276C328.384 175.986 328.477 175.989 328.555 175.995C328.633 176.001 328.702 176.016 328.762 176.04C328.828 176.064 328.885 176.103 328.933 176.157C328.987 176.211 329.038 176.283 329.086 176.373L332.983 183.6C333.085 183.792 333.178 183.99 333.262 184.194C333.352 184.398 333.439 184.608 333.523 184.824C333.607 184.602 333.694 184.389 333.784 184.185C333.874 183.975 333.97 183.774 334.072 183.582L337.915 176.373C337.963 176.283 338.014 176.211 338.068 176.157C338.122 176.103 338.179 176.064 338.239 176.04C338.305 176.016 338.377 176.001 338.455 175.995C338.533 175.989 338.626 175.986 338.734 175.986H340.561ZM345.895 177.912V181.521H350.449V183.384H345.895V187.065H351.673V189H343.465V175.986H351.673V177.912H345.895ZM356.248 177.912V181.521H360.802V183.384H356.248V187.065H362.026V189H353.818V175.986H362.026V177.912H356.248ZM373.262 177.975H369.338V189H366.917V177.975H362.993V175.986H373.262V177.975Z" fill="#1B0B02"/>
<path d="M309.561 116.986V130H307.428V121.594C307.428 121.258 307.446 120.895 307.482 120.505L303.549 127.894C303.363 128.248 303.078 128.425 302.694 128.425H302.352C301.968 128.425 301.683 128.248 301.497 127.894L297.519 120.478C297.537 120.676 297.552 120.871 297.564 121.063C297.576 121.255 297.582 121.432 297.582 121.594V130H295.449V116.986H297.276C297.384 116.986 297.477 116.989 297.555 116.995C297.633 117.001 297.702 117.016 297.762 117.04C297.828 117.064 297.885 117.103 297.933 117.157C297.987 117.211 298.038 117.283 298.086 117.373L301.983 124.6C302.085 124.792 302.178 124.99 302.262 125.194C302.352 125.398 302.439 125.608 302.523 125.824C302.607 125.602 302.694 125.389 302.784 125.185C302.874 124.975 302.97 124.774 303.072 124.582L306.915 117.373C306.963 117.283 307.014 117.211 307.068 117.157C307.122 117.103 307.179 117.064 307.239 117.04C307.305 117.016 307.377 117.001 307.455 116.995C307.533 116.989 307.626 116.986 307.734 116.986H309.561ZM319.341 125.086L317.757 120.757C317.679 120.565 317.598 120.337 317.514 120.073C317.43 119.809 317.346 119.524 317.262 119.218C317.184 119.524 317.103 119.812 317.019 120.082C316.935 120.346 316.854 120.577 316.776 120.775L315.201 125.086H319.341ZM323.616 130H321.744C321.534 130 321.363 129.949 321.231 129.847C321.099 129.739 321 129.607 320.934 129.451L319.962 126.796H314.571L313.599 129.451C313.551 129.589 313.458 129.715 313.32 129.829C313.182 129.943 313.011 130 312.807 130H310.917L316.038 116.986H318.504L323.616 130ZM327.384 122.44H327.951C328.179 122.44 328.368 122.41 328.518 122.35C328.668 122.284 328.797 122.182 328.905 122.044L332.496 117.499C332.646 117.307 332.802 117.175 332.964 117.103C333.132 117.025 333.342 116.986 333.594 116.986H335.682L331.299 122.395C331.041 122.725 330.774 122.959 330.498 123.097C330.696 123.169 330.873 123.271 331.029 123.403C331.191 123.529 331.344 123.697 331.488 123.907L336.006 130H333.873C333.585 130 333.369 129.961 333.225 129.883C333.087 129.799 332.97 129.679 332.874 129.523L329.193 124.717C329.079 124.555 328.947 124.441 328.797 124.375C328.647 124.309 328.431 124.276 328.149 124.276H327.384V130H324.963V116.986H327.384V122.44ZM339.733 118.912V122.521H344.287V124.384H339.733V128.065H345.511V130H337.303V116.986H345.511V118.912H339.733ZM358.963 119.353C358.891 119.479 358.813 119.572 358.729 119.632C358.651 119.686 358.552 119.713 358.432 119.713C358.306 119.713 358.168 119.668 358.018 119.578C357.874 119.482 357.7 119.377 357.496 119.263C357.292 119.149 357.052 119.047 356.776 118.957C356.506 118.861 356.185 118.813 355.813 118.813C355.477 118.813 355.183 118.855 354.931 118.939C354.679 119.017 354.466 119.128 354.292 119.272C354.124 119.416 353.998 119.59 353.914 119.794C353.83 119.992 353.788 120.211 353.788 120.451C353.788 120.757 353.872 121.012 354.04 121.216C354.214 121.42 354.442 121.594 354.724 121.738C355.006 121.882 355.327 122.011 355.687 122.125C356.047 122.239 356.416 122.362 356.794 122.494C357.172 122.62 357.541 122.77 357.901 122.944C358.261 123.112 358.582 123.328 358.864 123.592C359.146 123.85 359.371 124.168 359.539 124.546C359.713 124.924 359.8 125.383 359.8 125.923C359.8 126.511 359.698 127.063 359.494 127.579C359.296 128.089 359.002 128.536 358.612 128.92C358.228 129.298 357.757 129.598 357.199 129.82C356.641 130.036 356.002 130.144 355.282 130.144C354.868 130.144 354.46 130.102 354.058 130.018C353.656 129.94 353.269 129.826 352.897 129.676C352.531 129.526 352.186 129.346 351.862 129.136C351.538 128.926 351.25 128.692 350.998 128.434L351.709 127.273C351.769 127.189 351.847 127.12 351.943 127.066C352.039 127.006 352.141 126.976 352.249 126.976C352.399 126.976 352.561 127.039 352.735 127.165C352.909 127.285 353.116 127.42 353.356 127.57C353.596 127.72 353.875 127.858 354.193 127.984C354.517 128.104 354.904 128.164 355.354 128.164C356.044 128.164 356.578 128.002 356.956 127.678C357.334 127.348 357.523 126.877 357.523 126.265C357.523 125.923 357.436 125.644 357.262 125.428C357.094 125.212 356.869 125.032 356.587 124.888C356.305 124.738 355.984 124.612 355.624 124.51C355.264 124.408 354.898 124.297 354.526 124.177C354.154 124.057 353.788 123.913 353.428 123.745C353.068 123.577 352.747 123.358 352.465 123.088C352.183 122.818 351.955 122.482 351.781 122.08C351.613 121.672 351.529 121.171 351.529 120.577C351.529 120.103 351.622 119.641 351.808 119.191C352 118.741 352.276 118.342 352.636 117.994C352.996 117.646 353.44 117.367 353.968 117.157C354.496 116.947 355.102 116.842 355.786 116.842C356.554 116.842 357.262 116.962 357.91 117.202C358.558 117.442 359.11 117.778 359.566 118.21L358.963 119.353ZM364.342 118.912V122.521H368.896V124.384H364.342V128.065H370.12V130H361.912V116.986H370.12V118.912H364.342ZM383.236 116.986V130H381.994C381.802 130 381.64 129.97 381.508 129.91C381.382 129.844 381.259 129.736 381.139 129.586L374.344 120.91C374.38 121.306 374.398 121.672 374.398 122.008V130H372.265V116.986H373.534C373.636 116.986 373.723 116.992 373.795 117.004C373.873 117.01 373.939 117.028 373.993 117.058C374.053 117.082 374.11 117.121 374.164 117.175C374.218 117.223 374.278 117.289 374.344 117.373L381.166 126.085C381.148 125.875 381.133 125.668 381.121 125.464C381.109 125.26 381.103 125.071 381.103 124.897V116.986H383.236ZM393.065 119.353C392.993 119.479 392.915 119.572 392.831 119.632C392.753 119.686 392.654 119.713 392.534 119.713C392.408 119.713 392.27 119.668 392.12 119.578C391.976 119.482 391.802 119.377 391.598 119.263C391.394 119.149 391.154 119.047 390.878 118.957C390.608 118.861 390.287 118.813 389.915 118.813C389.579 118.813 389.285 118.855 389.033 118.939C388.781 119.017 388.568 119.128 388.394 119.272C388.226 119.416 388.1 119.59 388.016 119.794C387.932 119.992 387.89 120.211 387.89 120.451C387.89 120.757 387.974 121.012 388.142 121.216C388.316 121.42 388.544 121.594 388.826 121.738C389.108 121.882 389.429 122.011 389.789 122.125C390.149 122.239 390.518 122.362 390.896 122.494C391.274 122.62 391.643 122.77 392.003 122.944C392.363 123.112 392.684 123.328 392.966 123.592C393.248 123.85 393.473 124.168 393.641 124.546C393.815 124.924 393.902 125.383 393.902 125.923C393.902 126.511 393.8 127.063 393.596 127.579C393.398 128.089 393.104 128.536 392.714 128.92C392.33 129.298 391.859 129.598 391.301 129.82C390.743 130.036 390.104 130.144 389.384 130.144C388.97 130.144 388.562 130.102 388.16 130.018C387.758 129.94 387.371 129.826 386.999 129.676C386.633 129.526 386.288 129.346 385.964 129.136C385.64 128.926 385.352 128.692 385.1 128.434L385.811 127.273C385.871 127.189 385.949 127.12 386.045 127.066C386.141 127.006 386.243 126.976 386.351 126.976C386.501 126.976 386.663 127.039 386.837 127.165C387.011 127.285 387.218 127.42 387.458 127.57C387.698 127.72 387.977 127.858 388.295 127.984C388.619 128.104 389.006 128.164 389.456 128.164C390.146 128.164 390.68 128.002 391.058 127.678C391.436 127.348 391.625 126.877 391.625 126.265C391.625 125.923 391.538 125.644 391.364 125.428C391.196 125.212 390.971 125.032 390.689 124.888C390.407 124.738 390.086 124.612 389.726 124.51C389.366 124.408 389 124.297 388.628 124.177C388.256 124.057 387.89 123.913 387.53 123.745C387.17 123.577 386.849 123.358 386.567 123.088C386.285 122.818 386.057 122.482 385.883 122.08C385.715 121.672 385.631 121.171 385.631 120.577C385.631 120.103 385.724 119.641 385.91 119.191C386.102 118.741 386.378 118.342 386.738 117.994C387.098 117.646 387.542 117.367 388.07 117.157C388.598 116.947 389.204 116.842 389.888 116.842C390.656 116.842 391.364 116.962 392.012 117.202C392.66 117.442 393.212 117.778 393.668 118.21L393.065 119.353ZM398.443 118.912V122.521H402.997V124.384H398.443V128.065H404.221V130H396.013V116.986H404.221V118.912H398.443ZM303.612 146.78H300.12V150.488H298.311V146.78H294.837V145.133H298.311V141.443H300.12V145.133H303.612V146.78ZM324.379 138.986V152H322.246V143.594C322.246 143.258 322.264 142.895 322.3 142.505L318.367 149.894C318.181 150.248 317.896 150.425 317.512 150.425H317.17C316.786 150.425 316.501 150.248 316.315 149.894L312.337 142.478C312.355 142.676 312.37 142.871 312.382 143.063C312.394 143.255 312.4 143.432 312.4 143.594V152H310.267V138.986H312.094C312.202 138.986 312.295 138.989 312.373 138.995C312.451 139.001 312.52 139.016 312.58 139.04C312.646 139.064 312.703 139.103 312.751 139.157C312.805 139.211 312.856 139.283 312.904 139.373L316.801 146.6C316.903 146.792 316.996 146.99 317.08 147.194C317.17 147.398 317.257 147.608 317.341 147.824C317.425 147.602 317.512 147.389 317.602 147.185C317.692 146.975 317.788 146.774 317.89 146.582L321.733 139.373C321.781 139.283 321.832 139.211 321.886 139.157C321.94 139.103 321.997 139.064 322.057 139.04C322.123 139.016 322.195 139.001 322.273 138.995C322.351 138.989 322.444 138.986 322.552 138.986H324.379ZM329.713 140.912V144.521H334.267V146.384H329.713V150.065H335.491V152H327.283V138.986H335.491V140.912H329.713ZM344.513 147.086L342.929 142.757C342.851 142.565 342.77 142.337 342.686 142.073C342.602 141.809 342.518 141.524 342.434 141.218C342.356 141.524 342.275 141.812 342.191 142.082C342.107 142.346 342.026 142.577 341.948 142.775L340.373 147.086H344.513ZM348.788 152H346.916C346.706 152 346.535 151.949 346.403 151.847C346.271 151.739 346.172 151.607 346.105 151.451L345.134 148.796H339.743L338.771 151.451C338.723 151.589 338.63 151.715 338.492 151.829C338.354 151.943 338.183 152 337.979 152H336.088L341.21 138.986H343.676L348.788 152ZM361.106 138.986V152H359.864C359.672 152 359.51 151.97 359.378 151.91C359.252 151.844 359.129 151.736 359.009 151.586L352.214 142.91C352.25 143.306 352.268 143.672 352.268 144.008V152H350.135V138.986H351.404C351.506 138.986 351.593 138.992 351.665 139.004C351.743 139.01 351.809 139.028 351.863 139.058C351.923 139.082 351.98 139.121 352.034 139.175C352.088 139.223 352.148 139.289 352.214 139.373L359.036 148.085C359.018 147.875 359.003 147.668 358.991 147.464C358.979 147.26 358.973 147.071 358.973 146.897V138.986H361.106ZM366.434 152H364.004V138.986H366.434V152ZM380.318 138.986V152H379.076C378.884 152 378.722 151.97 378.59 151.91C378.464 151.844 378.341 151.736 378.221 151.586L371.426 142.91C371.462 143.306 371.48 143.672 371.48 144.008V152H369.347V138.986H370.616C370.718 138.986 370.805 138.992 370.877 139.004C370.955 139.01 371.021 139.028 371.075 139.058C371.135 139.082 371.192 139.121 371.246 139.175C371.3 139.223 371.36 139.289 371.426 139.373L378.248 148.085C378.23 147.875 378.215 147.668 378.203 147.464C378.191 147.26 378.185 147.071 378.185 146.897V138.986H380.318ZM393.945 145.475V150.74C393.285 151.226 392.58 151.583 391.83 151.811C391.086 152.033 390.288 152.144 389.436 152.144C388.374 152.144 387.411 151.979 386.547 151.649C385.689 151.319 384.954 150.86 384.342 150.272C383.736 149.684 383.268 148.982 382.938 148.166C382.608 147.35 382.443 146.459 382.443 145.493C382.443 144.515 382.602 143.618 382.92 142.802C383.238 141.986 383.688 141.284 384.27 140.696C384.858 140.108 385.569 139.652 386.403 139.328C387.237 139.004 388.173 138.842 389.211 138.842C389.739 138.842 390.231 138.884 390.687 138.968C391.149 139.052 391.575 139.169 391.965 139.319C392.361 139.463 392.721 139.64 393.045 139.85C393.369 140.06 393.666 140.291 393.936 140.543L393.243 141.641C393.135 141.815 392.994 141.923 392.82 141.965C392.646 142.001 392.457 141.956 392.253 141.83C392.055 141.716 391.857 141.602 391.659 141.488C391.461 141.374 391.239 141.275 390.993 141.191C390.753 141.107 390.48 141.038 390.174 140.984C389.874 140.93 389.526 140.903 389.13 140.903C388.488 140.903 387.906 141.011 387.384 141.227C386.868 141.443 386.427 141.752 386.061 142.154C385.695 142.556 385.413 143.039 385.215 143.603C385.017 144.167 384.918 144.797 384.918 145.493C384.918 146.237 385.023 146.903 385.233 147.491C385.449 148.073 385.749 148.568 386.133 148.976C386.523 149.378 386.991 149.687 387.537 149.903C388.083 150.113 388.692 150.218 389.364 150.218C389.844 150.218 390.273 150.167 390.651 150.065C391.029 149.963 391.398 149.825 391.758 149.651V147.293H390.12C389.964 147.293 389.841 147.251 389.751 147.167C389.667 147.077 389.625 146.969 389.625 146.843V145.475H393.945Z" fill="#1B0B02"/>
<path d="M264.382 31.178C264.838 31.178 265.234 31.121 265.57 31.007C265.912 30.893 266.191 30.737 266.407 30.539C266.629 30.335 266.794 30.095 266.902 29.819C267.01 29.543 267.064 29.24 267.064 28.91C267.064 28.25 266.845 27.743 266.407 27.389C265.975 27.035 265.312 26.858 264.418 26.858H262.87V31.178H264.382ZM270.61 38H268.423C268.009 38 267.709 37.838 267.523 37.514L264.787 33.347C264.685 33.191 264.571 33.08 264.445 33.014C264.325 32.948 264.145 32.915 263.905 32.915H262.87V38H260.449V24.986H264.418C265.3 24.986 266.056 25.079 266.686 25.265C267.322 25.445 267.841 25.7 268.243 26.03C268.651 26.36 268.951 26.756 269.143 27.218C269.335 27.674 269.431 28.178 269.431 28.73C269.431 29.168 269.365 29.582 269.233 29.972C269.107 30.362 268.921 30.716 268.675 31.034C268.435 31.352 268.135 31.631 267.775 31.871C267.421 32.111 267.016 32.3 266.56 32.438C266.716 32.528 266.86 32.636 266.992 32.762C267.124 32.882 267.244 33.026 267.352 33.194L270.61 38ZM274.445 26.912V30.521H278.999V32.384H274.445V36.065H280.223V38H272.015V24.986H280.223V26.912H274.445ZM284.799 26.912V30.764H289.677V32.699H284.799V38H282.369V24.986H290.577V26.912H284.799ZM300.187 36.002V38H292.564V24.986H294.985V36.002H300.187ZM304.346 26.912V30.521H308.9V32.384H304.346V36.065H310.124V38H301.916V24.986H310.124V26.912H304.346ZM320.925 34.931C321.057 34.931 321.174 34.982 321.276 35.084L322.23 36.119C321.702 36.773 321.051 37.274 320.277 37.622C319.509 37.97 318.585 38.144 317.505 38.144C316.539 38.144 315.669 37.979 314.895 37.649C314.127 37.319 313.47 36.86 312.924 36.272C312.378 35.684 311.958 34.982 311.664 34.166C311.376 33.35 311.232 32.459 311.232 31.493C311.232 30.515 311.388 29.621 311.7 28.811C312.012 27.995 312.45 27.293 313.014 26.705C313.584 26.117 314.262 25.661 315.048 25.337C315.834 25.007 316.704 24.842 317.658 24.842C318.606 24.842 319.446 24.998 320.178 25.31C320.916 25.622 321.543 26.03 322.059 26.534L321.249 27.659C321.201 27.731 321.138 27.794 321.06 27.848C320.988 27.902 320.886 27.929 320.754 27.929C320.664 27.929 320.571 27.905 320.475 27.857C320.379 27.803 320.274 27.74 320.16 27.668C320.046 27.59 319.914 27.506 319.764 27.416C319.614 27.326 319.44 27.245 319.242 27.173C319.044 27.095 318.813 27.032 318.549 26.984C318.291 26.93 317.991 26.903 317.649 26.903C317.067 26.903 316.533 27.008 316.047 27.218C315.567 27.422 315.153 27.722 314.805 28.118C314.457 28.508 314.187 28.988 313.995 29.558C313.803 30.122 313.707 30.767 313.707 31.493C313.707 32.225 313.809 32.876 314.013 33.446C314.223 34.016 314.505 34.496 314.859 34.886C315.213 35.276 315.63 35.576 316.11 35.786C316.59 35.99 317.106 36.092 317.658 36.092C317.988 36.092 318.285 36.074 318.549 36.038C318.819 36.002 319.065 35.945 319.287 35.867C319.515 35.789 319.728 35.69 319.926 35.57C320.13 35.444 320.331 35.291 320.529 35.111C320.589 35.057 320.652 35.015 320.718 34.985C320.784 34.949 320.853 34.931 320.925 34.931ZM332.978 26.975H329.054V38H326.633V26.975H322.709V24.986H332.978V26.975ZM344.792 33.086L343.208 28.757C343.13 28.565 343.049 28.337 342.965 28.073C342.881 27.809 342.797 27.524 342.713 27.218C342.635 27.524 342.554 27.812 342.47 28.082C342.386 28.346 342.305 28.577 342.227 28.775L340.652 33.086H344.792ZM349.067 38H347.195C346.985 38 346.814 37.949 346.682 37.847C346.55 37.739 346.451 37.607 346.385 37.451L345.413 34.796H340.022L339.05 37.451C339.002 37.589 338.909 37.715 338.771 37.829C338.633 37.943 338.462 38 338.258 38H336.368L341.489 24.986H343.955L349.067 38ZM361.385 24.986V38H360.143C359.951 38 359.789 37.97 359.657 37.91C359.531 37.844 359.408 37.736 359.288 37.586L352.493 28.91C352.529 29.306 352.547 29.672 352.547 30.008V38H350.414V24.986H351.683C351.785 24.986 351.872 24.992 351.944 25.004C352.022 25.01 352.088 25.028 352.142 25.058C352.202 25.082 352.259 25.121 352.313 25.175C352.367 25.223 352.427 25.289 352.493 25.373L359.315 34.085C359.297 33.875 359.282 33.668 359.27 33.464C359.258 33.26 359.252 33.071 359.252 32.897V24.986H361.385ZM375.839 31.493C375.839 32.447 375.68 33.323 375.362 34.121C375.044 34.919 374.597 35.606 374.021 36.182C373.445 36.758 372.752 37.205 371.942 37.523C371.132 37.841 370.232 38 369.242 38H364.283V24.986H369.242C370.232 24.986 371.132 25.148 371.942 25.472C372.752 25.79 373.445 26.237 374.021 26.813C374.597 27.383 375.044 28.067 375.362 28.865C375.68 29.663 375.839 30.539 375.839 31.493ZM373.355 31.493C373.355 30.779 373.259 30.14 373.067 29.576C372.881 29.006 372.608 28.526 372.248 28.136C371.894 27.74 371.462 27.437 370.952 27.227C370.448 27.017 369.878 26.912 369.242 26.912H366.713V36.074H369.242C369.878 36.074 370.448 35.969 370.952 35.759C371.462 35.549 371.894 35.249 372.248 34.859C372.608 34.463 372.881 33.983 373.067 33.419C373.259 32.849 373.355 32.207 373.355 31.493ZM389.976 36.002V38H382.353V24.986H384.774V36.002H389.976ZM394.135 26.912V30.521H398.689V32.384H394.135V36.065H399.913V38H391.705V24.986H399.913V26.912H394.135ZM408.934 33.086L407.35 28.757C407.272 28.565 407.191 28.337 407.107 28.073C407.023 27.809 406.939 27.524 406.855 27.218C406.777 27.524 406.696 27.812 406.612 28.082C406.528 28.346 406.447 28.577 406.369 28.775L404.794 33.086H408.934ZM413.209 38H411.337C411.127 38 410.956 37.949 410.824 37.847C410.692 37.739 410.593 37.607 410.527 37.451L409.555 34.796H404.164L403.192 37.451C403.144 37.589 403.051 37.715 402.913 37.829C402.775 37.943 402.604 38 402.4 38H400.51L405.631 24.986H408.097L413.209 38ZM418.489 31.178C418.945 31.178 419.341 31.121 419.677 31.007C420.019 30.893 420.298 30.737 420.514 30.539C420.736 30.335 420.901 30.095 421.009 29.819C421.117 29.543 421.171 29.24 421.171 28.91C421.171 28.25 420.952 27.743 420.514 27.389C420.082 27.035 419.419 26.858 418.525 26.858H416.977V31.178H418.489ZM424.717 38H422.53C422.116 38 421.816 37.838 421.63 37.514L418.894 33.347C418.792 33.191 418.678 33.08 418.552 33.014C418.432 32.948 418.252 32.915 418.012 32.915H416.977V38H414.556V24.986H418.525C419.407 24.986 420.163 25.079 420.793 25.265C421.429 25.445 421.948 25.7 422.35 26.03C422.758 26.36 423.058 26.756 423.25 27.218C423.442 27.674 423.538 28.178 423.538 28.73C423.538 29.168 423.472 29.582 423.34 29.972C423.214 30.362 423.028 30.716 422.782 31.034C422.542 31.352 422.242 31.631 421.882 31.871C421.528 32.111 421.123 32.3 420.667 32.438C420.823 32.528 420.967 32.636 421.099 32.762C421.231 32.882 421.351 33.026 421.459 33.194L424.717 38ZM437.094 24.986V38H435.852C435.66 38 435.498 37.97 435.366 37.91C435.24 37.844 435.117 37.736 434.997 37.586L428.202 28.91C428.238 29.306 428.256 29.672 428.256 30.008V38H426.123V24.986H427.392C427.494 24.986 427.581 24.992 427.653 25.004C427.731 25.01 427.797 25.028 427.851 25.058C427.911 25.082 427.968 25.121 428.022 25.175C428.076 25.223 428.136 25.289 428.202 25.373L435.024 34.085C435.006 33.875 434.991 33.668 434.979 33.464C434.967 33.26 434.961 33.071 434.961 32.897V24.986H437.094Z" fill="#1B0B02"/>
<path d="M340.325 80.086L338.741 75.757C338.663 75.565 338.582 75.337 338.498 75.073C338.414 74.809 338.33 74.524 338.246 74.218C338.168 74.524 338.087 74.812 338.003 75.082C337.919 75.346 337.838 75.577 337.76 75.775L336.185 80.086H340.325ZM344.6 85H342.728C342.518 85 342.347 84.949 342.215 84.847C342.083 84.739 341.984 84.607 341.918 84.451L340.946 81.796H335.555L334.583 84.451C334.535 84.589 334.442 84.715 334.304 84.829C334.166 84.943 333.995 85 333.791 85H331.901L337.022 71.986H339.488L344.6 85ZM354.497 81.931C354.629 81.931 354.746 81.982 354.848 82.084L355.802 83.119C355.274 83.773 354.623 84.274 353.849 84.622C353.081 84.97 352.157 85.144 351.077 85.144C350.111 85.144 349.241 84.979 348.467 84.649C347.699 84.319 347.042 83.86 346.496 83.272C345.95 82.684 345.53 81.982 345.236 81.166C344.948 80.35 344.804 79.459 344.804 78.493C344.804 77.515 344.96 76.621 345.272 75.811C345.584 74.995 346.022 74.293 346.586 73.705C347.156 73.117 347.834 72.661 348.62 72.337C349.406 72.007 350.276 71.842 351.23 71.842C352.178 71.842 353.018 71.998 353.75 72.31C354.488 72.622 355.115 73.03 355.631 73.534L354.821 74.659C354.773 74.731 354.71 74.794 354.632 74.848C354.56 74.902 354.458 74.929 354.326 74.929C354.236 74.929 354.143 74.905 354.047 74.857C353.951 74.803 353.846 74.74 353.732 74.668C353.618 74.59 353.486 74.506 353.336 74.416C353.186 74.326 353.012 74.245 352.814 74.173C352.616 74.095 352.385 74.032 352.121 73.984C351.863 73.93 351.563 73.903 351.221 73.903C350.639 73.903 350.105 74.008 349.619 74.218C349.139 74.422 348.725 74.722 348.377 75.118C348.029 75.508 347.759 75.988 347.567 76.558C347.375 77.122 347.279 77.767 347.279 78.493C347.279 79.225 347.381 79.876 347.585 80.446C347.795 81.016 348.077 81.496 348.431 81.886C348.785 82.276 349.202 82.576 349.682 82.786C350.162 82.99 350.678 83.092 351.23 83.092C351.56 83.092 351.857 83.074 352.121 83.038C352.391 83.002 352.637 82.945 352.859 82.867C353.087 82.789 353.3 82.69 353.498 82.57C353.702 82.444 353.903 82.291 354.101 82.111C354.161 82.057 354.224 82.015 354.29 81.985C354.356 81.949 354.425 81.931 354.497 81.931ZM366.551 73.975H362.627V85H360.206V73.975H356.282V71.986H366.551V73.975Z" fill="#1B0B02"/>
</svg>
