<svg width="30" height="30" viewBox="0 0 30 30" fill="none" xmlns="http://www.w3.org/2000/svg">
<path d="M21.25 2.5H8.75C5.29822 2.5 2.5 5.29822 2.5 8.75V21.25C2.5 24.7018 5.29822 27.5 8.75 27.5H21.25C24.7018 27.5 27.5 24.7018 27.5 21.25V8.75C27.5 5.29822 24.7018 2.5 21.25 2.5Z" stroke="#1B0B02" stroke-width="2" stroke-linecap="round" stroke-linejoin="round"/>
<path d="M19.9999 14.2125C20.1541 15.2528 19.9765 16.3153 19.4921 17.2488C19.0077 18.1823 18.2413 18.9393 17.3019 19.4121C16.3625 19.8849 15.2979 20.0495 14.2596 19.8824C13.2213 19.7153 12.2621 19.2251 11.5184 18.4815C10.7748 17.7378 10.2845 16.7786 10.1175 15.7403C9.95038 14.702 10.115 13.6374 10.5878 12.698C11.0606 11.7586 11.8176 10.9922 12.7511 10.5078C13.6846 10.0234 14.7471 9.84575 15.7874 10C16.8485 10.1574 17.8309 10.6518 18.5895 11.4104C19.348 12.1689 19.8425 13.1514 19.9999 14.2125Z" stroke="#1B0B02" stroke-width="2" stroke-linecap="round" stroke-linejoin="round"/>
<path d="M21.875 8.125H21.8875" stroke="#1B0B02" stroke-width="2" stroke-linecap="round" stroke-linejoin="round"/>
</svg>
