<svg width="193" height="19" viewBox="0 0 193 19" fill="none" xmlns="http://www.w3.org/2000/svg">
<path d="M14.052 3.3H8.82V18H5.592V3.3H0.36V0.647999H14.052V3.3ZM30.9506 0.647999V18H27.7106V10.416H19.5626V18H16.3226V0.647999H19.5626V8.112H27.7106V0.647999H30.9506ZM38.0548 3.216V8.028H44.1268V10.512H38.0548V15.42H45.7588V18H34.8148V0.647999H45.7588V3.216H38.0548ZM59.6994 8.904C60.3074 8.904 60.8354 8.828 61.2834 8.676C61.7394 8.524 62.1114 8.316 62.3994 8.052C62.6954 7.78 62.9154 7.46 63.0594 7.092C63.2034 6.724 63.2754 6.32 63.2754 5.88C63.2754 5 62.9834 4.324 62.3994 3.852C61.8234 3.38 60.9394 3.144 59.7474 3.144H57.6834V8.904H59.6994ZM68.0034 18H65.0874C64.5354 18 64.1354 17.784 63.8874 17.352L60.2394 11.796C60.1034 11.588 59.9514 11.44 59.7834 11.352C59.6234 11.264 59.3834 11.22 59.0634 11.22H57.6834V18H54.4554V0.647999H59.7474C60.9234 0.647999 61.9314 0.771999 62.7714 1.02C63.6194 1.26 64.3114 1.6 64.8474 2.04C65.3914 2.48 65.7914 3.008 66.0474 3.624C66.3034 4.232 66.4314 4.904 66.4314 5.64C66.4314 6.224 66.3434 6.776 66.1674 7.296C65.9994 7.816 65.7514 8.288 65.4234 8.712C65.1034 9.136 64.7034 9.508 64.2234 9.828C63.7514 10.148 63.2114 10.4 62.6034 10.584C62.8114 10.704 63.0034 10.848 63.1794 11.016C63.3554 11.176 63.5154 11.368 63.6594 11.592L68.0034 18ZM73.1173 3.216V8.028H79.1893V10.512H73.1173V15.42H80.8213V18H69.8773V0.647999H80.8213V3.216H73.1173ZM92.922 3.804C92.826 3.972 92.722 4.096 92.61 4.176C92.506 4.248 92.374 4.284 92.214 4.284C92.046 4.284 91.862 4.224 91.662 4.104C91.47 3.976 91.238 3.836 90.966 3.684C90.694 3.532 90.374 3.396 90.006 3.276C89.646 3.148 89.218 3.084 88.722 3.084C88.274 3.084 87.882 3.14 87.546 3.252C87.21 3.356 86.926 3.504 86.694 3.696C86.47 3.888 86.302 4.12 86.19 4.392C86.078 4.656 86.022 4.948 86.022 5.268C86.022 5.676 86.134 6.016 86.358 6.288C86.59 6.56 86.894 6.792 87.27 6.984C87.646 7.176 88.074 7.348 88.554 7.5C89.034 7.652 89.526 7.816 90.03 7.992C90.534 8.16 91.026 8.36 91.506 8.592C91.986 8.816 92.414 9.104 92.79 9.456C93.166 9.8 93.466 10.224 93.69 10.728C93.922 11.232 94.038 11.844 94.038 12.564C94.038 13.348 93.902 14.084 93.63 14.772C93.366 15.452 92.974 16.048 92.454 16.56C91.942 17.064 91.314 17.464 90.57 17.76C89.826 18.048 88.974 18.192 88.014 18.192C87.462 18.192 86.918 18.136 86.382 18.024C85.846 17.92 85.33 17.768 84.834 17.568C84.346 17.368 83.886 17.128 83.454 16.848C83.022 16.568 82.638 16.256 82.302 15.912L83.25 14.364C83.33 14.252 83.434 14.16 83.562 14.088C83.69 14.008 83.826 13.968 83.97 13.968C84.17 13.968 84.386 14.052 84.618 14.22C84.85 14.38 85.126 14.56 85.446 14.76C85.766 14.96 86.138 15.144 86.562 15.312C86.994 15.472 87.51 15.552 88.11 15.552C89.03 15.552 89.742 15.336 90.246 14.904C90.75 14.464 91.002 13.836 91.002 13.02C91.002 12.564 90.886 12.192 90.654 11.904C90.43 11.616 90.13 11.376 89.754 11.184C89.378 10.984 88.95 10.816 88.47 10.68C87.99 10.544 87.502 10.396 87.006 10.236C86.51 10.076 86.022 9.884 85.542 9.66C85.062 9.436 84.634 9.144 84.258 8.784C83.882 8.424 83.578 7.976 83.346 7.44C83.122 6.896 83.01 6.228 83.01 5.436C83.01 4.804 83.134 4.188 83.382 3.588C83.638 2.988 84.006 2.456 84.486 1.992C84.966 1.528 85.558 1.156 86.262 0.875999C86.966 0.596 87.774 0.456 88.686 0.456C89.71 0.456 90.654 0.616 91.518 0.935999C92.382 1.256 93.118 1.704 93.726 2.28L92.922 3.804ZM108.77 13.908C108.946 13.908 109.102 13.976 109.238 14.112L110.51 15.492C109.806 16.364 108.938 17.032 107.906 17.496C106.882 17.96 105.65 18.192 104.21 18.192C102.922 18.192 101.762 17.972 100.73 17.532C99.7059 17.092 98.8299 16.48 98.1019 15.696C97.3739 14.912 96.8139 13.976 96.4219 12.888C96.0379 11.8 95.8459 10.612 95.8459 9.324C95.8459 8.02 96.0539 6.828 96.4699 5.748C96.8859 4.66 97.4699 3.724 98.2219 2.94C98.9819 2.156 99.8859 1.548 100.934 1.116C101.982 0.676 103.142 0.456 104.414 0.456C105.678 0.456 106.798 0.664 107.774 1.08C108.758 1.496 109.594 2.04 110.282 2.712L109.202 4.212C109.138 4.308 109.054 4.392 108.95 4.464C108.854 4.536 108.718 4.572 108.542 4.572C108.422 4.572 108.298 4.54 108.17 4.476C108.042 4.404 107.902 4.32 107.75 4.224C107.598 4.12 107.422 4.008 107.222 3.888C107.022 3.768 106.79 3.66 106.526 3.564C106.262 3.46 105.954 3.376 105.602 3.312C105.258 3.24 104.858 3.204 104.402 3.204C103.626 3.204 102.914 3.344 102.266 3.624C101.626 3.896 101.074 4.296 100.61 4.824C100.146 5.344 99.7859 5.984 99.5299 6.744C99.2739 7.496 99.1459 8.356 99.1459 9.324C99.1459 10.3 99.2819 11.168 99.5539 11.928C99.8339 12.688 100.21 13.328 100.682 13.848C101.154 14.368 101.71 14.768 102.35 15.048C102.99 15.32 103.678 15.456 104.414 15.456C104.854 15.456 105.25 15.432 105.602 15.384C105.962 15.336 106.29 15.26 106.586 15.156C106.89 15.052 107.174 14.92 107.438 14.76C107.71 14.592 107.978 14.388 108.242 14.148C108.322 14.076 108.406 14.02 108.494 13.98C108.582 13.932 108.674 13.908 108.77 13.908ZM119.705 15.396C120.329 15.396 120.885 15.292 121.373 15.084C121.869 14.876 122.285 14.584 122.621 14.208C122.957 13.832 123.213 13.376 123.389 12.84C123.573 12.304 123.665 11.704 123.665 11.04V0.647999H126.893V11.04C126.893 12.072 126.725 13.028 126.389 13.908C126.061 14.78 125.585 15.536 124.961 16.176C124.345 16.808 123.593 17.304 122.705 17.664C121.817 18.016 120.817 18.192 119.705 18.192C118.585 18.192 117.581 18.016 116.693 17.664C115.805 17.304 115.049 16.808 114.425 16.176C113.809 15.536 113.333 14.78 112.997 13.908C112.669 13.028 112.505 12.072 112.505 11.04V0.647999H115.733V11.028C115.733 11.692 115.821 12.292 115.997 12.828C116.181 13.364 116.441 13.824 116.777 14.208C117.121 14.584 117.537 14.876 118.025 15.084C118.521 15.292 119.081 15.396 119.705 15.396ZM133.774 3.216V8.028H139.846V10.512H133.774V15.42H141.478V18H130.534V0.647999H141.478V3.216H133.774ZM160.338 15.336V18H150.174V0.647999H153.402V15.336H160.338ZM171.811 11.448L169.699 5.676C169.595 5.42 169.487 5.116 169.375 4.764C169.263 4.412 169.151 4.032 169.039 3.624C168.935 4.032 168.827 4.416 168.715 4.776C168.603 5.128 168.495 5.436 168.391 5.7L166.291 11.448H171.811ZM177.511 18H175.015C174.735 18 174.507 17.932 174.331 17.796C174.155 17.652 174.023 17.476 173.935 17.268L172.639 13.728H165.451L164.155 17.268C164.091 17.452 163.967 17.62 163.783 17.772C163.599 17.924 163.371 18 163.099 18H160.579L167.407 0.647999H170.695L177.511 18ZM185.799 15.48C186.399 15.48 186.903 15.408 187.311 15.264C187.719 15.12 188.043 14.928 188.283 14.688C188.531 14.448 188.707 14.168 188.811 13.848C188.923 13.528 188.979 13.188 188.979 12.828C188.979 12.452 188.919 12.116 188.799 11.82C188.679 11.516 188.491 11.26 188.235 11.052C187.979 10.836 187.647 10.672 187.239 10.56C186.839 10.448 186.355 10.392 185.787 10.392H182.535V15.48H185.799ZM182.535 3.144V8.16H185.103C186.207 8.16 187.039 7.96 187.599 7.56C188.167 7.16 188.451 6.524 188.451 5.652C188.451 4.748 188.195 4.104 187.683 3.72C187.171 3.336 186.371 3.144 185.283 3.144H182.535ZM185.283 0.647999C186.419 0.647999 187.391 0.755999 188.199 0.972C189.007 1.188 189.667 1.496 190.179 1.896C190.699 2.296 191.079 2.78 191.319 3.348C191.559 3.916 191.679 4.556 191.679 5.268C191.679 5.676 191.619 6.068 191.499 6.444C191.379 6.812 191.191 7.16 190.935 7.488C190.687 7.808 190.367 8.1 189.975 8.364C189.591 8.628 189.131 8.852 188.595 9.036C190.979 9.572 192.171 10.86 192.171 12.9C192.171 13.636 192.031 14.316 191.751 14.94C191.471 15.564 191.063 16.104 190.527 16.56C189.991 17.008 189.331 17.36 188.547 17.616C187.763 17.872 186.867 18 185.859 18H179.307V0.647999H185.283Z" fill="#C06734"/>
</svg>
