<svg width="36" height="36" viewBox="0 0 36 36" fill="none" xmlns="http://www.w3.org/2000/svg">
<g clip-path="url(#clip0)">
<path d="M17.9613 10.0403C19.077 10.0403 19.9814 9.13582 19.9814 8.02013C19.9814 6.90444 19.077 6 17.9613 6C16.8456 6 15.9412 6.90444 15.9412 8.02013C15.9412 9.13582 16.8456 10.0403 17.9613 10.0403Z" fill="#1B0B02"/>
<path d="M18.665 11.0035C18.1616 10.9013 17.6143 10.9058 17.1199 11.0223C13.7614 11.4159 12.6709 15.3033 12.9788 18.2674C13.1124 19.5488 15.1325 19.5623 14.9976 18.2674C14.8856 17.1872 14.9335 15.557 15.5077 14.3983C15.5077 15.8066 15.5077 17.215 15.5077 18.6228C15.5077 18.6726 15.5126 18.7192 15.5149 18.7671C15.5135 18.79 15.5081 18.8093 15.5081 18.8326C15.5081 22.1848 15.5023 25.5357 15.3638 28.8853C15.3024 30.3743 17.6112 30.3685 17.6721 28.8853C17.7806 26.2601 17.808 23.6335 17.8142 21.0065C17.9236 21.0136 18.033 21.0136 18.1423 21.0074C18.1491 23.6344 18.1755 26.261 18.2831 28.8853C18.3445 30.3685 20.6533 30.3743 20.5914 28.8853C20.4529 25.5357 20.448 22.1848 20.448 18.8326C20.448 18.7286 20.4341 18.634 20.413 18.543C20.4099 17.0877 20.3543 15.6309 20.3713 14.1765C21.0589 15.3405 21.1217 17.1159 21.0024 18.2665C20.8671 19.5605 22.8877 19.5475 23.0212 18.2665C23.3363 15.241 22.1934 11.2527 18.665 11.0035Z" fill="#1B0B02"/>
</g>
<circle cx="18" cy="18" r="17" stroke="#1B0B02" stroke-width="2"/>
<defs>
<clipPath id="clip0">
<rect width="24" height="24" fill="white" transform="translate(6 6)"/>
</clipPath>
</defs>
</svg>
